<svg xmlns="http://www.w3.org/2000/svg" xmlns:xlink="http://www.w3.org/1999/xlink" width="2000" zoomAndPan="magnify" viewBox="0 0 1500 1499.999933" height="2000" preserveAspectRatio="xMidYMid meet" version="1.0"><defs><g/><clipPath id="de2e009914"><path d="M 896.917969 586.035156 L 1072.417969 586.035156 L 1072.417969 760.785156 L 896.917969 760.785156 Z M 896.917969 586.035156 " clip-rule="nonzero"/></clipPath><clipPath id="d8ec929030"><path d="M 1072.382812 673.40625 C 1072.382812 674.839844 1072.347656 676.265625 1072.277344 677.695312 C 1072.207031 679.125 1072.101562 680.550781 1071.960938 681.972656 C 1071.820312 683.394531 1071.644531 684.816406 1071.433594 686.230469 C 1071.222656 687.644531 1070.980469 689.050781 1070.699219 690.453125 C 1070.417969 691.859375 1070.105469 693.253906 1069.753906 694.640625 C 1069.40625 696.027344 1069.023438 697.40625 1068.609375 698.773438 C 1068.191406 700.140625 1067.742188 701.5 1067.257812 702.84375 C 1066.773438 704.191406 1066.257812 705.527344 1065.707031 706.847656 C 1065.15625 708.167969 1064.578125 709.476562 1063.960938 710.769531 C 1063.347656 712.0625 1062.703125 713.335938 1062.027344 714.597656 C 1061.351562 715.859375 1060.644531 717.105469 1059.90625 718.332031 C 1059.167969 719.558594 1058.398438 720.765625 1057.601562 721.953125 C 1056.804688 723.144531 1055.976562 724.3125 1055.121094 725.460938 C 1054.265625 726.609375 1053.382812 727.734375 1052.472656 728.839844 C 1051.5625 729.945312 1050.625 731.03125 1049.660156 732.089844 C 1048.699219 733.148438 1047.707031 734.183594 1046.691406 735.195312 C 1045.675781 736.207031 1044.636719 737.191406 1043.574219 738.152344 C 1042.511719 739.113281 1041.425781 740.046875 1040.316406 740.953125 C 1039.203125 741.859375 1038.074219 742.742188 1036.921875 743.59375 C 1035.765625 744.445312 1034.59375 745.269531 1033.398438 746.0625 C 1032.207031 746.855469 1030.996094 747.621094 1029.761719 748.355469 C 1028.53125 749.09375 1027.28125 749.796875 1026.015625 750.46875 C 1024.75 751.144531 1023.46875 751.789062 1022.171875 752.398438 C 1020.875 753.011719 1019.5625 753.589844 1018.234375 754.136719 C 1016.910156 754.683594 1015.570312 755.199219 1014.21875 755.679688 C 1012.867188 756.164062 1011.503906 756.609375 1010.128906 757.027344 C 1008.757812 757.441406 1007.375 757.820312 1005.980469 758.167969 C 1004.589844 758.515625 1003.1875 758.832031 1001.78125 759.109375 C 1000.371094 759.386719 998.957031 759.632812 997.539062 759.84375 C 996.117188 760.050781 994.695312 760.226562 993.265625 760.367188 C 991.835938 760.507812 990.40625 760.613281 988.972656 760.683594 C 987.539062 760.753906 986.101562 760.789062 984.667969 760.789062 C 983.230469 760.789062 981.796875 760.753906 980.363281 760.683594 C 978.929688 760.613281 977.496094 760.507812 976.070312 760.367188 C 974.640625 760.226562 973.214844 760.050781 971.796875 759.84375 C 970.375 759.632812 968.960938 759.386719 967.554688 759.109375 C 966.144531 758.832031 964.746094 758.515625 963.351562 758.167969 C 961.960938 757.820312 960.578125 757.441406 959.203125 757.027344 C 957.832031 756.609375 956.46875 756.164062 955.117188 755.679688 C 953.765625 755.199219 952.425781 754.683594 951.097656 754.136719 C 949.773438 753.589844 948.460938 753.011719 947.164062 752.398438 C 945.863281 751.789062 944.582031 751.144531 943.316406 750.46875 C 942.050781 749.796875 940.800781 749.09375 939.570312 748.355469 C 938.339844 747.621094 937.128906 746.855469 935.933594 746.0625 C 934.738281 745.269531 933.566406 744.445312 932.414062 743.59375 C 931.261719 742.742188 930.128906 741.859375 929.019531 740.953125 C 927.910156 740.046875 926.824219 739.113281 925.757812 738.152344 C 924.695312 737.191406 923.65625 736.207031 922.640625 735.195312 C 921.625 734.183594 920.636719 733.148438 919.671875 732.089844 C 918.707031 731.03125 917.769531 729.945312 916.859375 728.839844 C 915.949219 727.734375 915.066406 726.609375 914.210938 725.460938 C 913.355469 724.3125 912.53125 723.144531 911.734375 721.953125 C 910.933594 720.765625 910.167969 719.558594 909.429688 718.332031 C 908.691406 717.105469 907.984375 715.859375 907.308594 714.597656 C 906.628906 713.335938 905.984375 712.0625 905.371094 710.769531 C 904.757812 709.476562 904.175781 708.167969 903.625 706.847656 C 903.078125 705.527344 902.5625 704.191406 902.078125 702.84375 C 901.59375 701.5 901.144531 700.140625 900.726562 698.773438 C 900.308594 697.40625 899.925781 696.027344 899.578125 694.640625 C 899.230469 693.253906 898.914062 691.859375 898.636719 690.453125 C 898.355469 689.050781 898.109375 687.644531 897.898438 686.230469 C 897.6875 684.816406 897.511719 683.394531 897.371094 681.972656 C 897.230469 680.550781 897.125 679.125 897.054688 677.695312 C 896.984375 676.265625 896.949219 674.839844 896.949219 673.40625 C 896.949219 671.976562 896.984375 670.546875 897.054688 669.121094 C 897.125 667.691406 897.230469 666.265625 897.371094 664.84375 C 897.511719 663.421875 897.6875 662 897.898438 660.585938 C 898.109375 659.171875 898.355469 657.761719 898.636719 656.359375 C 898.914062 654.957031 899.230469 653.5625 899.578125 652.175781 C 899.925781 650.789062 900.308594 649.410156 900.726562 648.042969 C 901.144531 646.675781 901.59375 645.316406 902.078125 643.96875 C 902.5625 642.625 903.078125 641.289062 903.625 639.96875 C 904.175781 638.648438 904.757812 637.339844 905.371094 636.046875 C 905.984375 634.753906 906.628906 633.476562 907.308594 632.21875 C 907.984375 630.957031 908.691406 629.710938 909.429688 628.484375 C 910.167969 627.257812 910.933594 626.050781 911.734375 624.863281 C 912.53125 623.671875 913.355469 622.503906 914.210938 621.355469 C 915.066406 620.207031 915.949219 619.078125 916.859375 617.972656 C 917.769531 616.867188 918.707031 615.785156 919.671875 614.726562 C 920.636719 613.667969 921.625 612.632812 922.640625 611.621094 C 923.65625 610.609375 924.695312 609.625 925.757812 608.664062 C 926.824219 607.703125 927.910156 606.769531 929.019531 605.863281 C 930.128906 604.953125 931.261719 604.074219 932.414062 603.222656 C 933.566406 602.371094 934.738281 601.546875 935.933594 600.753906 C 937.128906 599.960938 938.339844 599.195312 939.570312 598.460938 C 940.800781 597.722656 942.050781 597.019531 943.316406 596.34375 C 944.582031 595.671875 945.863281 595.027344 947.164062 594.417969 C 948.460938 593.804688 949.773438 593.226562 951.097656 592.679688 C 952.425781 592.132812 953.765625 591.617188 955.117188 591.136719 C 956.46875 590.652344 957.832031 590.207031 959.203125 589.789062 C 960.578125 589.375 961.960938 588.992188 963.351562 588.644531 C 964.746094 588.296875 966.144531 587.984375 967.554688 587.707031 C 968.960938 587.425781 970.375 587.183594 971.796875 586.972656 C 973.214844 586.761719 974.640625 586.589844 976.070312 586.449219 C 977.496094 586.308594 978.929688 586.203125 980.363281 586.132812 C 981.796875 586.0625 983.230469 586.027344 984.667969 586.027344 C 986.101562 586.027344 987.539062 586.0625 988.972656 586.132812 C 990.40625 586.203125 991.835938 586.308594 993.265625 586.449219 C 994.695312 586.589844 996.117188 586.761719 997.539062 586.972656 C 998.957031 587.183594 1000.371094 587.425781 1001.78125 587.707031 C 1003.1875 587.984375 1004.589844 588.296875 1005.980469 588.644531 C 1007.375 588.992188 1008.757812 589.375 1010.128906 589.789062 C 1011.503906 590.207031 1012.867188 590.652344 1014.21875 591.136719 C 1015.570312 591.617188 1016.910156 592.132812 1018.234375 592.679688 C 1019.5625 593.226562 1020.875 593.804688 1022.171875 594.417969 C 1023.46875 595.027344 1024.75 595.671875 1026.015625 596.34375 C 1027.28125 597.019531 1028.53125 597.722656 1029.761719 598.460938 C 1030.996094 599.195312 1032.207031 599.960938 1033.398438 600.753906 C 1034.59375 601.546875 1035.765625 602.371094 1036.921875 603.222656 C 1038.074219 604.074219 1039.203125 604.953125 1040.316406 605.863281 C 1041.425781 606.769531 1042.511719 607.703125 1043.574219 608.664062 C 1044.636719 609.625 1045.675781 610.609375 1046.691406 611.621094 C 1047.707031 612.632812 1048.699219 613.667969 1049.660156 614.726562 C 1050.625 615.785156 1051.5625 616.867188 1052.472656 617.972656 C 1053.382812 619.078125 1054.265625 620.207031 1055.121094 621.355469 C 1055.976562 622.503906 1056.804688 623.671875 1057.601562 624.863281 C 1058.398438 626.050781 1059.167969 627.257812 1059.90625 628.484375 C 1060.644531 629.710938 1061.351562 630.957031 1062.027344 632.21875 C 1062.703125 633.476562 1063.347656 634.753906 1063.960938 636.046875 C 1064.578125 637.339844 1065.15625 638.648438 1065.707031 639.96875 C 1066.257812 641.289062 1066.773438 642.625 1067.257812 643.96875 C 1067.742188 645.316406 1068.191406 646.675781 1068.609375 648.042969 C 1069.023438 649.410156 1069.40625 650.789062 1069.753906 652.175781 C 1070.105469 653.5625 1070.417969 654.957031 1070.699219 656.359375 C 1070.980469 657.761719 1071.222656 659.171875 1071.433594 660.585938 C 1071.644531 662 1071.820312 663.421875 1071.960938 664.84375 C 1072.101562 666.265625 1072.207031 667.691406 1072.277344 669.121094 C 1072.347656 670.546875 1072.382812 671.976562 1072.382812 673.40625 Z M 1072.382812 673.40625 " clip-rule="nonzero"/></clipPath><linearGradient x1="-0.160046" gradientTransform="matrix(50.28927, -162.187432, 162.48092, 50.198442, 967.06792, 754.002506)" y1="0" x2="1.128188" gradientUnits="userSpaceOnUse" y2="0" id="665ada8c37"><stop stop-opacity="1" stop-color="rgb(69.018555%, 80.389404%, 18.429565%)" offset="0"/><stop stop-opacity="1" stop-color="rgb(69.026184%, 80.39856%, 18.429565%)" offset="0.125"/><stop stop-opacity="1" stop-color="rgb(69.116211%, 80.506897%, 18.440247%)" offset="0.132812"/><stop stop-opacity="1" stop-color="rgb(69.277954%, 80.703735%, 18.460083%)" offset="0.140625"/><stop stop-opacity="1" stop-color="rgb(69.439697%, 80.9021%, 18.479919%)" offset="0.148438"/><stop stop-opacity="1" stop-color="rgb(69.60144%, 81.098938%, 18.499756%)" offset="0.15625"/><stop stop-opacity="1" stop-color="rgb(69.763184%, 81.295776%, 18.519592%)" offset="0.164062"/><stop stop-opacity="1" stop-color="rgb(69.924927%, 81.494141%, 18.539429%)" offset="0.171875"/><stop stop-opacity="1" stop-color="rgb(70.08667%, 81.690979%, 18.559265%)" offset="0.179688"/><stop stop-opacity="1" stop-color="rgb(70.248413%, 81.887817%, 18.579102%)" offset="0.1875"/><stop stop-opacity="1" stop-color="rgb(70.410156%, 82.086182%, 18.597412%)" offset="0.195312"/><stop stop-opacity="1" stop-color="rgb(70.571899%, 82.28302%, 18.617249%)" offset="0.203125"/><stop stop-opacity="1" stop-color="rgb(70.733643%, 82.479858%, 18.637085%)" offset="0.210938"/><stop stop-opacity="1" stop-color="rgb(70.895386%, 82.678223%, 18.656921%)" offset="0.21875"/><stop stop-opacity="1" stop-color="rgb(71.058655%, 82.875061%, 18.676758%)" offset="0.226562"/><stop stop-opacity="1" stop-color="rgb(71.220398%, 83.071899%, 18.696594%)" offset="0.234375"/><stop stop-opacity="1" stop-color="rgb(71.382141%, 83.270264%, 18.716431%)" offset="0.242187"/><stop stop-opacity="1" stop-color="rgb(71.543884%, 83.467102%, 18.736267%)" offset="0.25"/><stop stop-opacity="1" stop-color="rgb(71.705627%, 83.66394%, 18.756104%)" offset="0.257812"/><stop stop-opacity="1" stop-color="rgb(71.867371%, 83.862305%, 18.77594%)" offset="0.265625"/><stop stop-opacity="1" stop-color="rgb(72.029114%, 84.059143%, 18.795776%)" offset="0.273438"/><stop stop-opacity="1" stop-color="rgb(72.190857%, 84.255981%, 18.815613%)" offset="0.28125"/><stop stop-opacity="1" stop-color="rgb(72.3526%, 84.454346%, 18.835449%)" offset="0.289063"/><stop stop-opacity="1" stop-color="rgb(72.514343%, 84.651184%, 18.855286%)" offset="0.296875"/><stop stop-opacity="1" stop-color="rgb(72.676086%, 84.848022%, 18.873596%)" offset="0.304688"/><stop stop-opacity="1" stop-color="rgb(72.83783%, 85.046387%, 18.893433%)" offset="0.3125"/><stop stop-opacity="1" stop-color="rgb(72.999573%, 85.243225%, 18.913269%)" offset="0.320312"/><stop stop-opacity="1" stop-color="rgb(73.161316%, 85.440063%, 18.933105%)" offset="0.328125"/><stop stop-opacity="1" stop-color="rgb(73.323059%, 85.638428%, 18.952942%)" offset="0.335938"/><stop stop-opacity="1" stop-color="rgb(73.484802%, 85.835266%, 18.972778%)" offset="0.34375"/><stop stop-opacity="1" stop-color="rgb(73.646545%, 86.032104%, 18.992615%)" offset="0.351562"/><stop stop-opacity="1" stop-color="rgb(73.809814%, 86.230469%, 19.012451%)" offset="0.359375"/><stop stop-opacity="1" stop-color="rgb(73.971558%, 86.427307%, 19.032288%)" offset="0.367188"/><stop stop-opacity="1" stop-color="rgb(74.133301%, 86.624146%, 19.052124%)" offset="0.375"/><stop stop-opacity="1" stop-color="rgb(74.295044%, 86.82251%, 19.07196%)" offset="0.382812"/><stop stop-opacity="1" stop-color="rgb(74.456787%, 87.019348%, 19.091797%)" offset="0.390625"/><stop stop-opacity="1" stop-color="rgb(74.61853%, 87.217712%, 19.111633%)" offset="0.398437"/><stop stop-opacity="1" stop-color="rgb(74.780273%, 87.414551%, 19.13147%)" offset="0.40625"/><stop stop-opacity="1" stop-color="rgb(74.942017%, 87.611389%, 19.14978%)" offset="0.414062"/><stop stop-opacity="1" stop-color="rgb(75.10376%, 87.809753%, 19.169617%)" offset="0.421875"/><stop stop-opacity="1" stop-color="rgb(75.265503%, 88.006592%, 19.189453%)" offset="0.429687"/><stop stop-opacity="1" stop-color="rgb(75.427246%, 88.20343%, 19.20929%)" offset="0.4375"/><stop stop-opacity="1" stop-color="rgb(75.588989%, 88.401794%, 19.229126%)" offset="0.445312"/><stop stop-opacity="1" stop-color="rgb(75.750732%, 88.598633%, 19.248962%)" offset="0.453125"/><stop stop-opacity="1" stop-color="rgb(75.912476%, 88.795471%, 19.268799%)" offset="0.460937"/><stop stop-opacity="1" stop-color="rgb(76.074219%, 88.993835%, 19.288635%)" offset="0.46875"/><stop stop-opacity="1" stop-color="rgb(76.235962%, 89.190674%, 19.308472%)" offset="0.476562"/><stop stop-opacity="1" stop-color="rgb(76.397705%, 89.387512%, 19.328308%)" offset="0.484375"/><stop stop-opacity="1" stop-color="rgb(76.560974%, 89.585876%, 19.348145%)" offset="0.492188"/><stop stop-opacity="1" stop-color="rgb(76.722717%, 89.782715%, 19.367981%)" offset="0.5"/><stop stop-opacity="1" stop-color="rgb(76.88446%, 89.979553%, 19.387817%)" offset="0.507812"/><stop stop-opacity="1" stop-color="rgb(77.046204%, 90.177917%, 19.407654%)" offset="0.515625"/><stop stop-opacity="1" stop-color="rgb(77.207947%, 90.374756%, 19.425964%)" offset="0.523438"/><stop stop-opacity="1" stop-color="rgb(77.36969%, 90.571594%, 19.445801%)" offset="0.53125"/><stop stop-opacity="1" stop-color="rgb(77.531433%, 90.769958%, 19.465637%)" offset="0.539062"/><stop stop-opacity="1" stop-color="rgb(77.693176%, 90.966797%, 19.485474%)" offset="0.546875"/><stop stop-opacity="1" stop-color="rgb(77.854919%, 91.163635%, 19.50531%)" offset="0.554688"/><stop stop-opacity="1" stop-color="rgb(78.016663%, 91.362%, 19.525146%)" offset="0.5625"/><stop stop-opacity="1" stop-color="rgb(78.178406%, 91.558838%, 19.544983%)" offset="0.570312"/><stop stop-opacity="1" stop-color="rgb(78.340149%, 91.755676%, 19.564819%)" offset="0.578125"/><stop stop-opacity="1" stop-color="rgb(78.501892%, 91.954041%, 19.584656%)" offset="0.585938"/><stop stop-opacity="1" stop-color="rgb(78.663635%, 92.150879%, 19.604492%)" offset="0.59375"/><stop stop-opacity="1" stop-color="rgb(78.825378%, 92.347717%, 19.624329%)" offset="0.601563"/><stop stop-opacity="1" stop-color="rgb(78.987122%, 92.546082%, 19.644165%)" offset="0.609375"/><stop stop-opacity="1" stop-color="rgb(79.150391%, 92.74292%, 19.664001%)" offset="0.617188"/><stop stop-opacity="1" stop-color="rgb(79.312134%, 92.939758%, 19.682312%)" offset="0.625"/><stop stop-opacity="1" stop-color="rgb(79.473877%, 93.138123%, 19.702148%)" offset="0.632813"/><stop stop-opacity="1" stop-color="rgb(79.63562%, 93.334961%, 19.721985%)" offset="0.640625"/><stop stop-opacity="1" stop-color="rgb(79.797363%, 93.531799%, 19.741821%)" offset="0.648438"/><stop stop-opacity="1" stop-color="rgb(79.959106%, 93.730164%, 19.761658%)" offset="0.65625"/><stop stop-opacity="1" stop-color="rgb(80.12085%, 93.927002%, 19.781494%)" offset="0.664063"/><stop stop-opacity="1" stop-color="rgb(80.282593%, 94.125366%, 19.801331%)" offset="0.671875"/><stop stop-opacity="1" stop-color="rgb(80.444336%, 94.322205%, 19.821167%)" offset="0.679688"/><stop stop-opacity="1" stop-color="rgb(80.606079%, 94.519043%, 19.841003%)" offset="0.6875"/><stop stop-opacity="1" stop-color="rgb(80.767822%, 94.717407%, 19.86084%)" offset="0.695312"/><stop stop-opacity="1" stop-color="rgb(80.929565%, 94.914246%, 19.880676%)" offset="0.703125"/><stop stop-opacity="1" stop-color="rgb(81.091309%, 95.111084%, 19.900513%)" offset="0.710938"/><stop stop-opacity="1" stop-color="rgb(81.253052%, 95.309448%, 19.920349%)" offset="0.71875"/><stop stop-opacity="1" stop-color="rgb(81.414795%, 95.506287%, 19.940186%)" offset="0.726562"/><stop stop-opacity="1" stop-color="rgb(81.576538%, 95.703125%, 19.958496%)" offset="0.734375"/><stop stop-opacity="1" stop-color="rgb(81.738281%, 95.901489%, 19.978333%)" offset="0.742188"/><stop stop-opacity="1" stop-color="rgb(81.90155%, 96.098328%, 19.998169%)" offset="0.75"/><stop stop-opacity="1" stop-color="rgb(82.063293%, 96.295166%, 20.018005%)" offset="0.757812"/><stop stop-opacity="1" stop-color="rgb(82.225037%, 96.49353%, 20.037842%)" offset="0.765625"/><stop stop-opacity="1" stop-color="rgb(82.38678%, 96.690369%, 20.057678%)" offset="0.773438"/><stop stop-opacity="1" stop-color="rgb(82.548523%, 96.887207%, 20.077515%)" offset="0.78125"/><stop stop-opacity="1" stop-color="rgb(82.710266%, 97.085571%, 20.097351%)" offset="0.789062"/><stop stop-opacity="1" stop-color="rgb(82.872009%, 97.28241%, 20.117188%)" offset="0.796875"/><stop stop-opacity="1" stop-color="rgb(83.033752%, 97.479248%, 20.137024%)" offset="0.804688"/><stop stop-opacity="1" stop-color="rgb(83.195496%, 97.677612%, 20.15686%)" offset="0.8125"/><stop stop-opacity="1" stop-color="rgb(83.357239%, 97.874451%, 20.176697%)" offset="0.820312"/><stop stop-opacity="1" stop-color="rgb(83.518982%, 98.071289%, 20.196533%)" offset="0.828125"/><stop stop-opacity="1" stop-color="rgb(83.680725%, 98.269653%, 20.21637%)" offset="0.835937"/><stop stop-opacity="1" stop-color="rgb(83.842468%, 98.466492%, 20.23468%)" offset="0.84375"/><stop stop-opacity="1" stop-color="rgb(84.004211%, 98.66333%, 20.254517%)" offset="0.851562"/><stop stop-opacity="1" stop-color="rgb(84.165955%, 98.861694%, 20.274353%)" offset="0.859375"/><stop stop-opacity="1" stop-color="rgb(84.327698%, 99.058533%, 20.294189%)" offset="0.867188"/><stop stop-opacity="1" stop-color="rgb(84.489441%, 99.255371%, 20.314026%)" offset="0.875"/><stop stop-opacity="1" stop-color="rgb(84.65271%, 99.453735%, 20.333862%)" offset="0.882812"/><stop stop-opacity="1" stop-color="rgb(84.814453%, 99.650574%, 20.353699%)" offset="0.890625"/><stop stop-opacity="1" stop-color="rgb(84.997559%, 99.874878%, 20.376587%)" offset="0.90625"/><stop stop-opacity="1" stop-color="rgb(85.099792%, 100%, 20.388794%)" offset="0.9375"/><stop stop-opacity="1" stop-color="rgb(85.099792%, 100%, 20.388794%)" offset="1"/></linearGradient><clipPath id="1a44b3ecbf"><path d="M 896.917969 593 L 1072.417969 593 L 1072.417969 760.785156 L 896.917969 760.785156 Z M 896.917969 593 " clip-rule="nonzero"/></clipPath><clipPath id="ba33374f72"><path d="M 896.949219 673.40625 C 896.949219 670.546875 897.089844 667.691406 897.371094 664.84375 C 897.652344 661.996094 898.074219 659.167969 898.636719 656.359375 C 899.195312 653.554688 899.890625 650.78125 900.726562 648.042969 C 901.558594 645.304688 902.527344 642.613281 903.625 639.96875 C 904.726562 637.324219 905.953125 634.742188 907.308594 632.21875 C 908.660156 629.691406 910.136719 627.242188 911.734375 624.863281 C 913.328125 622.484375 915.039062 620.1875 916.859375 617.972656 C 918.683594 615.761719 920.609375 613.644531 922.640625 611.621094 C 924.671875 609.597656 926.800781 607.675781 929.019531 605.863281 C 931.242188 604.046875 933.546875 602.34375 935.933594 600.753906 C 938.324219 599.164062 940.785156 597.695312 943.316406 596.34375 C 945.851562 594.996094 948.445312 593.773438 951.097656 592.679688 C 953.753906 591.582031 956.453125 590.621094 959.203125 589.789062 C 961.953125 588.960938 964.738281 588.265625 967.554688 587.707031 C 970.371094 587.148438 973.210938 586.730469 976.070312 586.449219 C 978.929688 586.167969 981.792969 586.027344 984.667969 586.027344 C 987.539062 586.027344 990.40625 586.167969 993.265625 586.449219 C 996.125 586.730469 998.960938 587.148438 1001.78125 587.707031 C 1004.597656 588.265625 1007.382812 588.960938 1010.128906 589.789062 C 1012.878906 590.621094 1015.582031 591.582031 1018.234375 592.679688 C 1020.890625 593.773438 1023.484375 594.996094 1026.015625 596.34375 C 1028.550781 597.695312 1031.011719 599.164062 1033.398438 600.753906 C 1035.789062 602.34375 1038.09375 604.046875 1040.3125 605.863281 C 1042.535156 607.675781 1044.660156 609.597656 1046.691406 611.621094 C 1048.722656 613.644531 1050.652344 615.761719 1052.472656 617.972656 C 1054.296875 620.1875 1056.003906 622.484375 1057.601562 624.863281 C 1059.199219 627.242188 1060.671875 629.691406 1062.027344 632.21875 C 1063.382812 634.742188 1064.609375 637.324219 1065.707031 639.96875 C 1066.808594 642.613281 1067.773438 645.304688 1068.609375 648.042969 C 1069.441406 650.78125 1070.136719 653.554688 1070.699219 656.359375 C 1071.257812 659.167969 1071.679688 661.996094 1071.960938 664.84375 C 1072.242188 667.691406 1072.382812 670.546875 1072.382812 673.40625 C 1072.382812 676.269531 1072.242188 679.125 1071.960938 681.972656 C 1071.679688 684.820312 1071.257812 687.648438 1070.699219 690.453125 C 1070.136719 693.261719 1069.441406 696.035156 1068.609375 698.773438 C 1067.773438 701.511719 1066.808594 704.203125 1065.707031 706.847656 C 1064.609375 709.492188 1063.382812 712.074219 1062.027344 714.597656 C 1060.671875 717.121094 1059.199219 719.574219 1057.601562 721.953125 C 1056.003906 724.332031 1054.296875 726.628906 1052.472656 728.839844 C 1050.652344 731.054688 1048.722656 733.171875 1046.691406 735.195312 C 1044.660156 737.21875 1042.535156 739.136719 1040.316406 740.953125 C 1038.09375 742.769531 1035.789062 744.472656 1033.398438 746.0625 C 1031.011719 747.652344 1028.550781 749.121094 1026.015625 750.46875 C 1023.484375 751.820312 1020.890625 753.042969 1018.234375 754.136719 C 1015.582031 755.230469 1012.878906 756.195312 1010.128906 757.027344 C 1007.382812 757.855469 1004.597656 758.550781 1001.78125 759.109375 C 998.960938 759.667969 996.125 760.085938 993.265625 760.367188 C 990.40625 760.648438 987.539062 760.789062 984.667969 760.789062 C 981.792969 760.789062 978.929688 760.648438 976.070312 760.367188 C 973.210938 760.085938 970.371094 759.667969 967.554688 759.109375 C 964.738281 758.550781 961.953125 757.855469 959.203125 757.027344 C 956.453125 756.195312 953.753906 755.230469 951.097656 754.136719 C 948.445312 753.042969 945.851562 751.820312 943.316406 750.46875 C 940.785156 749.121094 938.324219 747.652344 935.933594 746.0625 C 933.546875 744.472656 931.242188 742.769531 929.019531 740.953125 C 926.800781 739.136719 924.671875 737.21875 922.640625 735.195312 C 920.609375 733.171875 918.683594 731.054688 916.859375 728.839844 C 915.039062 726.628906 913.328125 724.332031 911.734375 721.953125 C 910.136719 719.574219 908.660156 717.121094 907.308594 714.597656 C 905.953125 712.074219 904.726562 709.492188 903.625 706.847656 C 902.527344 704.203125 901.558594 701.511719 900.726562 698.773438 C 899.894531 696.035156 899.195312 693.261719 898.636719 690.453125 C 898.074219 687.648438 897.652344 684.820312 897.371094 681.972656 C 897.089844 679.125 896.949219 676.269531 896.949219 673.40625 Z M 896.949219 673.40625 " clip-rule="nonzero"/></clipPath><clipPath id="22d9fe0dc9"><path d="M 963 587 L 1072.417969 587 L 1072.417969 674 L 963 674 Z M 963 587 " clip-rule="nonzero"/></clipPath><clipPath id="7c13639dd1"><rect x="0" width="456" y="0" height="693"/></clipPath><clipPath id="59b5e8a56d"><rect x="0" width="421" y="0" height="693"/></clipPath></defs><g clip-path="url(#de2e009914)"><g clip-path="url(#d8ec929030)"><path fill="url(#665ada8c37)" d="M 847.5 745.507812 L 1057.046875 810.246094 L 1121.832031 601.308594 L 912.285156 536.570312 Z M 847.5 745.507812 " fill-rule="nonzero"/></g></g><g clip-path="url(#1a44b3ecbf)"><g clip-path="url(#ba33374f72)"><path fill="#b0cd2f" d="M 1038.796875 593.308594 C 1074.136719 656.300781 1050.910156 739.371094 989.863281 744.023438 C 940.683594 747.769531 911.296875 727.890625 896.949219 714.085938 C 912.554688 797.3125 1087.367188 798.601562 1076.585938 698.046875 C 1069.910156 635.757812 1078.101562 612.972656 1038.796875 593.308594 Z M 1038.796875 593.308594 " fill-opacity="1" fill-rule="evenodd"/></g></g><path fill="#ffffff" d="M 898.832031 655.328125 C 899.832031 650.605469 901.214844 646.027344 902.945312 641.617188 C 903.398438 647.246094 903.859375 652.363281 904.449219 657.039062 C 905.960938 669.035156 908.289062 678.058594 914.003906 685.421875 C 921.742188 695.386719 935.523438 702.234375 960.933594 709.601562 C 977.210938 714.324219 998.488281 720.671875 1009.503906 738.21875 C 1012.476562 742.949219 1014.726562 748.5 1015.933594 755.066406 C 1014.242188 755.710938 1012.53125 756.300781 1010.792969 756.839844 C 1009.761719 750.679688 1007.726562 745.480469 1004.953125 741.066406 C 994.679688 724.703125 974.617188 719.152344 959.433594 714.75 C 932.4375 706.921875 917.980469 699.292969 909.757812 688.707031 C 903.503906 680.648438 900.773438 670.835938 899.117188 657.710938 C 899.019531 656.929688 898.925781 656.136719 898.832031 655.328125 Z M 898.832031 655.328125 " fill-opacity="1" fill-rule="evenodd"/><g clip-path="url(#22d9fe0dc9)"><path fill="#ffffff" d="M 963.761719 588.527344 C 965.496094 588.105469 967.246094 587.734375 969.015625 587.417969 C 970.5625 596.753906 972.972656 604.128906 977.785156 610.324219 C 985.523438 620.292969 999.304688 627.140625 1024.714844 634.507812 C 1040.113281 638.972656 1059.984375 644.898438 1071.414062 660.375 C 1072.054688 664.628906 1072.382812 668.980469 1072.382812 673.410156 C 1071.386719 670.707031 1070.160156 668.234375 1068.734375 665.96875 C 1058.460938 649.609375 1038.398438 644.058594 1023.214844 639.65625 C 996.21875 631.828125 981.761719 624.199219 973.539062 613.609375 C 968.261719 606.8125 965.492188 598.765625 963.761719 588.527344 Z M 963.761719 588.527344 " fill-opacity="1" fill-rule="evenodd"/></g><g transform="matrix(1, 0, 0, 1, 383, 402)"><g clip-path="url(#7c13639dd1)"><g fill="#F5F0E8" fill-opacity="1"><g transform="translate(0.840274, 519.417092)"><g><path d="M 11.0625 0 L 219.3125 -512.65625 L 229.6875 -512.65625 L 437.9375 0 L 326.546875 0 L 306.484375 -53.265625 L 142.515625 -53.265625 L 123.140625 0 Z M 178.5 -145.984375 L 269.8125 -145.984375 L 224.84375 -274.65625 Z M 178.5 -145.984375 "/></g></g></g></g></g><g transform="matrix(1, 0, 0, 1, 696, 402)"><g clip-path="url(#59b5e8a56d)"><g fill="#F5F0E8" fill-opacity="1"><g transform="translate(0.882512, 519.417092)"><g><path d="M 390.203125 -487.0625 C 394.816406 -485.675781 396.195312 -482.21875 394.34375 -476.6875 C 393.882812 -474.832031 392.5 -473.5625 390.1875 -472.875 C 387.882812 -472.1875 385.8125 -472.070312 383.96875 -472.53125 C 354.445312 -484.976562 323.082031 -491.203125 289.875 -491.203125 C 251.132812 -491.203125 217.117188 -484.859375 187.828125 -472.171875 C 158.546875 -459.492188 133.875 -442.429688 113.8125 -420.984375 C 93.75 -399.535156 78.179688 -375.664062 67.109375 -349.375 C 54.648438 -318.007812 48.421875 -285.03125 48.421875 -250.4375 C 48.421875 -215.851562 54.648438 -182.878906 67.109375 -151.515625 C 78.179688 -124.765625 93.75 -100.664062 113.8125 -79.21875 C 133.875 -57.769531 158.546875 -40.816406 187.828125 -28.359375 C 217.117188 -15.910156 251.132812 -9.6875 289.875 -9.6875 C 306.019531 -9.6875 322.046875 -11.1875 337.953125 -14.1875 C 353.867188 -17.1875 369.207031 -21.910156 383.96875 -28.359375 C 385.8125 -29.285156 387.882812 -29.285156 390.1875 -28.359375 C 392.5 -27.441406 393.882812 -26.0625 394.34375 -24.21875 C 396.65625 -19.144531 395.273438 -15.453125 390.203125 -13.140625 C 358.835938 -0.222656 325.394531 6.234375 289.875 6.234375 C 248.832031 6.234375 212.742188 -0.453125 181.609375 -13.828125 C 150.472656 -27.210938 124.179688 -45.429688 102.734375 -68.484375 C 81.285156 -91.546875 64.796875 -117.144531 53.265625 -145.28125 C 39.890625 -178.488281 33.203125 -213.539062 33.203125 -250.4375 C 33.203125 -287.34375 39.890625 -322.171875 53.265625 -354.921875 C 64.796875 -383.515625 81.285156 -409.34375 102.734375 -432.40625 C 124.179688 -455.46875 150.472656 -473.6875 181.609375 -487.0625 C 212.742188 -500.4375 248.832031 -507.125 289.875 -507.125 C 324.46875 -507.125 357.910156 -500.4375 390.203125 -487.0625 Z M 370.828125 -129.375 C 375.441406 -131.675781 378.898438 -130.523438 381.203125 -125.921875 C 383.972656 -121.765625 383.050781 -118.300781 378.4375 -115.53125 C 363.675781 -107.226562 349.492188 -101.460938 335.890625 -98.234375 C 322.285156 -95.015625 306.945312 -93.40625 289.875 -93.40625 C 253.445312 -93.40625 223.351562 -102.28125 199.59375 -120.03125 C 175.84375 -137.789062 158.894531 -159.816406 148.75 -186.109375 C 140.90625 -206.398438 136.984375 -227.84375 136.984375 -250.4375 C 136.984375 -273.039062 140.90625 -294.257812 148.75 -314.09375 C 158.894531 -340.382812 175.84375 -362.523438 199.59375 -380.515625 C 223.351562 -398.503906 253.445312 -407.5 289.875 -407.5 C 306.945312 -407.5 322.285156 -405.882812 335.890625 -402.65625 C 349.492188 -399.425781 363.675781 -393.660156 378.4375 -385.359375 C 382.59375 -382.585938 383.515625 -378.894531 381.203125 -374.28125 C 378.898438 -370.132812 375.441406 -369.210938 370.828125 -371.515625 C 357.453125 -378.898438 344.535156 -384.085938 332.078125 -387.078125 C 319.628906 -390.078125 305.5625 -391.578125 289.875 -391.578125 C 256.664062 -391.578125 229.566406 -383.503906 208.578125 -367.359375 C 187.597656 -351.222656 172.5 -331.625 163.28125 -308.5625 C 155.894531 -290.113281 152.203125 -270.625 152.203125 -250.09375 C 152.203125 -229.570312 155.894531 -210.085938 163.28125 -191.640625 C 172.5 -168.117188 187.597656 -148.398438 208.578125 -132.484375 C 229.566406 -116.578125 256.664062 -108.625 289.875 -108.625 C 305.5625 -108.625 319.628906 -110.238281 332.078125 -113.46875 C 344.535156 -116.695312 357.453125 -122 370.828125 -129.375 Z M 370.828125 -129.375 "/></g></g></g></g></g><g fill="#F5F0E8" fill-opacity="1"><g transform="translate(223.758253, 1039.788346)"><g><path d="M 1.515625 0 L 30.0625 -70.28125 L 31.484375 -70.28125 L 60.03125 0 L 44.765625 0 L 42.015625 -7.296875 L 19.53125 -7.296875 L 16.875 0 Z M 24.46875 -20.015625 L 36.984375 -20.015625 L 30.828125 -37.65625 Z M 24.46875 -20.015625 "/></g></g></g><g fill="#F5F0E8" fill-opacity="1"><g transform="translate(285.688683, 1039.788346)"><g><path d="M 56.25 -23.609375 C 56.25 -18.992188 55.363281 -15.039062 53.59375 -11.75 C 51.820312 -8.46875 49.476562 -5.847656 46.5625 -3.890625 C 43.65625 -1.929688 40.460938 -0.617188 36.984375 0.046875 C 33.503906 0.710938 30.007812 0.710938 26.5 0.046875 C 23 -0.617188 19.789062 -1.929688 16.875 -3.890625 C 13.96875 -5.847656 11.628906 -8.46875 9.859375 -11.75 C 8.085938 -15.039062 7.203125 -18.992188 7.203125 -23.609375 L 7.203125 -67.8125 L 20.765625 -67.8125 L 20.765625 -23.71875 C 20.765625 -20.863281 21.507812 -18.582031 23 -16.875 C 24.488281 -15.175781 26.320312 -14.039062 28.5 -13.46875 C 30.675781 -12.894531 32.851562 -12.894531 35.03125 -13.46875 C 37.21875 -14.039062 39.054688 -15.175781 40.546875 -16.875 C 42.035156 -18.582031 42.78125 -20.863281 42.78125 -23.71875 L 42.78125 -67.8125 L 56.25 -67.8125 Z M 56.25 -23.609375 "/></g></g></g><g fill="#F5F0E8" fill-opacity="1"><g transform="translate(349.326228, 1039.788346)"><g><path d="M 32.34375 0 L 18.78125 0 L 18.78125 -54.25 L 1.890625 -54.25 L 1.890625 -67.71875 L 49.21875 -67.71875 L 49.21875 -54.25 L 32.34375 -54.25 Z M 32.34375 0 "/></g></g></g><g fill="#F5F0E8" fill-opacity="1"><g transform="translate(399.022193, 1039.788346)"><g><path d="M 40.21875 0.953125 C 34.394531 0.953125 29.285156 -0.0234375 24.890625 -1.984375 C 20.503906 -3.953125 16.851562 -6.59375 13.9375 -9.90625 C 11.03125 -13.226562 8.847656 -16.972656 7.390625 -21.140625 C 5.941406 -25.316406 5.21875 -29.601562 5.21875 -34 C 5.21875 -38.394531 5.941406 -42.675781 7.390625 -46.84375 C 8.847656 -51.019531 11.03125 -54.769531 13.9375 -58.09375 C 16.851562 -61.414062 20.503906 -64.054688 24.890625 -66.015625 C 29.285156 -67.972656 34.394531 -68.953125 40.21875 -68.953125 C 46.03125 -68.953125 51.132812 -67.972656 55.53125 -66.015625 C 59.925781 -64.054688 63.578125 -61.414062 66.484375 -58.09375 C 69.390625 -54.769531 71.570312 -51.019531 73.03125 -46.84375 C 74.488281 -42.675781 75.21875 -38.394531 75.21875 -34 C 75.21875 -29.601562 74.488281 -25.316406 73.03125 -21.140625 C 71.570312 -16.972656 69.390625 -13.226562 66.484375 -9.90625 C 63.578125 -6.59375 59.925781 -3.953125 55.53125 -1.984375 C 51.132812 -0.0234375 46.03125 0.953125 40.21875 0.953125 Z M 40.21875 -13.09375 C 44.070312 -13.09375 47.390625 -13.847656 50.171875 -15.359375 C 52.953125 -16.878906 55.164062 -18.890625 56.8125 -21.390625 C 58.457031 -23.890625 59.5625 -26.625 60.125 -29.59375 C 60.695312 -32.5625 60.695312 -35.53125 60.125 -38.5 C 59.5625 -41.476562 58.457031 -44.210938 56.8125 -46.703125 C 55.164062 -49.203125 52.953125 -51.210938 50.171875 -52.734375 C 47.390625 -54.253906 44.070312 -55.015625 40.21875 -55.015625 C 36.351562 -55.015625 33.03125 -54.253906 30.25 -52.734375 C 27.46875 -51.210938 25.253906 -49.203125 23.609375 -46.703125 C 21.972656 -44.210938 20.867188 -41.476562 20.296875 -38.5 C 19.722656 -35.53125 19.722656 -32.5625 20.296875 -29.59375 C 20.867188 -26.625 21.972656 -23.890625 23.609375 -21.390625 C 25.253906 -18.890625 27.46875 -16.878906 30.25 -15.359375 C 33.03125 -13.847656 36.351562 -13.09375 40.21875 -13.09375 Z M 40.21875 -13.09375 "/></g></g></g><g fill="#F5F0E8" fill-opacity="1"><g transform="translate(479.351562, 1039.788346)"><g><path d="M 21.15625 -36.890625 L 21.15625 0 L 7.59375 0 L 7.59375 -69.234375 L 11.1875 -69.234375 L 45.4375 -29.40625 L 45.4375 -67.71875 L 59.09375 -67.71875 L 59.09375 1.421875 L 55.484375 1.421875 Z M 21.15625 -36.890625 "/></g></g></g><g fill="#F5F0E8" fill-opacity="1"><g transform="translate(546.118837, 1039.788346)"><g><path d="M 40.21875 0.953125 C 34.394531 0.953125 29.285156 -0.0234375 24.890625 -1.984375 C 20.503906 -3.953125 16.851562 -6.59375 13.9375 -9.90625 C 11.03125 -13.226562 8.847656 -16.972656 7.390625 -21.140625 C 5.941406 -25.316406 5.21875 -29.601562 5.21875 -34 C 5.21875 -38.394531 5.941406 -42.675781 7.390625 -46.84375 C 8.847656 -51.019531 11.03125 -54.769531 13.9375 -58.09375 C 16.851562 -61.414062 20.503906 -64.054688 24.890625 -66.015625 C 29.285156 -67.972656 34.394531 -68.953125 40.21875 -68.953125 C 46.03125 -68.953125 51.132812 -67.972656 55.53125 -66.015625 C 59.925781 -64.054688 63.578125 -61.414062 66.484375 -58.09375 C 69.390625 -54.769531 71.570312 -51.019531 73.03125 -46.84375 C 74.488281 -42.675781 75.21875 -38.394531 75.21875 -34 C 75.21875 -29.601562 74.488281 -25.316406 73.03125 -21.140625 C 71.570312 -16.972656 69.390625 -13.226562 66.484375 -9.90625 C 63.578125 -6.59375 59.925781 -3.953125 55.53125 -1.984375 C 51.132812 -0.0234375 46.03125 0.953125 40.21875 0.953125 Z M 40.21875 -13.09375 C 44.070312 -13.09375 47.390625 -13.847656 50.171875 -15.359375 C 52.953125 -16.878906 55.164062 -18.890625 56.8125 -21.390625 C 58.457031 -23.890625 59.5625 -26.625 60.125 -29.59375 C 60.695312 -32.5625 60.695312 -35.53125 60.125 -38.5 C 59.5625 -41.476562 58.457031 -44.210938 56.8125 -46.703125 C 55.164062 -49.203125 52.953125 -51.210938 50.171875 -52.734375 C 47.390625 -54.253906 44.070312 -55.015625 40.21875 -55.015625 C 36.351562 -55.015625 33.03125 -54.253906 30.25 -52.734375 C 27.46875 -51.210938 25.253906 -49.203125 23.609375 -46.703125 C 21.972656 -44.210938 20.867188 -41.476562 20.296875 -38.5 C 19.722656 -35.53125 19.722656 -32.5625 20.296875 -29.59375 C 20.867188 -26.625 21.972656 -23.890625 23.609375 -21.390625 C 25.253906 -18.890625 27.46875 -16.878906 30.25 -15.359375 C 33.03125 -13.847656 36.351562 -13.09375 40.21875 -13.09375 Z M 40.21875 -13.09375 "/></g></g></g><g fill="#F5F0E8" fill-opacity="1"><g transform="translate(626.448207, 1039.788346)"><g><path d="M 38.703125 -39.078125 L 65.4375 -68.859375 L 69.703125 -68.859375 L 69.703125 0 L 55.953125 0 L 56.046875 -37.84375 L 38.703125 -19.625 L 21.34375 -37.84375 L 21.34375 0 L 7.59375 0 L 7.59375 -68.859375 L 11.953125 -68.859375 Z M 38.703125 -39.078125 "/></g></g></g><g fill="#F5F0E8" fill-opacity="1"><g transform="translate(703.837497, 1039.788346)"><g><path d="M 40.21875 0.953125 C 34.394531 0.953125 29.285156 -0.0234375 24.890625 -1.984375 C 20.503906 -3.953125 16.851562 -6.59375 13.9375 -9.90625 C 11.03125 -13.226562 8.847656 -16.972656 7.390625 -21.140625 C 5.941406 -25.316406 5.21875 -29.601562 5.21875 -34 C 5.21875 -38.394531 5.941406 -42.675781 7.390625 -46.84375 C 8.847656 -51.019531 11.03125 -54.769531 13.9375 -58.09375 C 16.851562 -61.414062 20.503906 -64.054688 24.890625 -66.015625 C 29.285156 -67.972656 34.394531 -68.953125 40.21875 -68.953125 C 46.03125 -68.953125 51.132812 -67.972656 55.53125 -66.015625 C 59.925781 -64.054688 63.578125 -61.414062 66.484375 -58.09375 C 69.390625 -54.769531 71.570312 -51.019531 73.03125 -46.84375 C 74.488281 -42.675781 75.21875 -38.394531 75.21875 -34 C 75.21875 -29.601562 74.488281 -25.316406 73.03125 -21.140625 C 71.570312 -16.972656 69.390625 -13.226562 66.484375 -9.90625 C 63.578125 -6.59375 59.925781 -3.953125 55.53125 -1.984375 C 51.132812 -0.0234375 46.03125 0.953125 40.21875 0.953125 Z M 40.21875 -13.09375 C 44.070312 -13.09375 47.390625 -13.847656 50.171875 -15.359375 C 52.953125 -16.878906 55.164062 -18.890625 56.8125 -21.390625 C 58.457031 -23.890625 59.5625 -26.625 60.125 -29.59375 C 60.695312 -32.5625 60.695312 -35.53125 60.125 -38.5 C 59.5625 -41.476562 58.457031 -44.210938 56.8125 -46.703125 C 55.164062 -49.203125 52.953125 -51.210938 50.171875 -52.734375 C 47.390625 -54.253906 44.070312 -55.015625 40.21875 -55.015625 C 36.351562 -55.015625 33.03125 -54.253906 30.25 -52.734375 C 27.46875 -51.210938 25.253906 -49.203125 23.609375 -46.703125 C 21.972656 -44.210938 20.867188 -41.476562 20.296875 -38.5 C 19.722656 -35.53125 19.722656 -32.5625 20.296875 -29.59375 C 20.867188 -26.625 21.972656 -23.890625 23.609375 -21.390625 C 25.253906 -18.890625 27.46875 -16.878906 30.25 -15.359375 C 33.03125 -13.847656 36.351562 -13.09375 40.21875 -13.09375 Z M 40.21875 -13.09375 "/></g></g></g><g fill="#F5F0E8" fill-opacity="1"><g transform="translate(784.166867, 1039.788346)"><g><path d="M 56.25 -23.609375 C 56.25 -18.992188 55.363281 -15.039062 53.59375 -11.75 C 51.820312 -8.46875 49.476562 -5.847656 46.5625 -3.890625 C 43.65625 -1.929688 40.460938 -0.617188 36.984375 0.046875 C 33.503906 0.710938 30.007812 0.710938 26.5 0.046875 C 23 -0.617188 19.789062 -1.929688 16.875 -3.890625 C 13.96875 -5.847656 11.628906 -8.46875 9.859375 -11.75 C 8.085938 -15.039062 7.203125 -18.992188 7.203125 -23.609375 L 7.203125 -67.8125 L 20.765625 -67.8125 L 20.765625 -23.71875 C 20.765625 -20.863281 21.507812 -18.582031 23 -16.875 C 24.488281 -15.175781 26.320312 -14.039062 28.5 -13.46875 C 30.675781 -12.894531 32.851562 -12.894531 35.03125 -13.46875 C 37.21875 -14.039062 39.054688 -15.175781 40.546875 -16.875 C 42.035156 -18.582031 42.78125 -20.863281 42.78125 -23.71875 L 42.78125 -67.8125 L 56.25 -67.8125 Z M 56.25 -23.609375 "/></g></g></g><g fill="#F5F0E8" fill-opacity="1"><g transform="translate(847.804435, 1039.788346)"><g><path d="M 4.453125 -4.359375 L 6.171875 -18.59375 C 8.753906 -16.757812 11.328125 -15.445312 13.890625 -14.65625 C 16.453125 -13.863281 18.773438 -13.40625 20.859375 -13.28125 C 22.953125 -13.15625 24.503906 -13.125 25.515625 -13.1875 C 27.535156 -13.3125 29.253906 -14.019531 30.671875 -15.3125 C 32.097656 -16.613281 32.71875 -18.179688 32.53125 -20.015625 C 32.40625 -21.972656 31.675781 -23.457031 30.34375 -24.46875 C 29.019531 -25.476562 27.410156 -26.300781 25.515625 -26.9375 C 21.972656 -28.257812 18.664062 -29.789062 15.59375 -31.53125 C 12.53125 -33.269531 10.066406 -35.4375 8.203125 -38.03125 C 6.335938 -40.625 5.40625 -43.816406 5.40625 -47.609375 C 5.40625 -51.398438 6.210938 -54.828125 7.828125 -57.890625 C 9.441406 -60.960938 11.703125 -63.414062 14.609375 -65.25 C 17.515625 -67.082031 20.832031 -68.09375 24.5625 -68.28125 C 26.332031 -68.414062 28.5 -68.351562 31.0625 -68.09375 C 33.625 -67.84375 37.085938 -66.957031 41.453125 -65.4375 L 39.734375 -52.359375 C 36.003906 -53.867188 33.03125 -54.734375 30.8125 -54.953125 C 28.601562 -55.179688 26.960938 -55.265625 25.890625 -55.203125 C 23.484375 -55.078125 21.726562 -54.253906 20.625 -52.734375 C 19.519531 -51.210938 19.03125 -49.503906 19.15625 -47.609375 C 19.34375 -45.710938 20.164062 -44.273438 21.625 -43.296875 C 23.082031 -42.316406 24.789062 -41.476562 26.75 -40.78125 C 30.289062 -39.519531 33.546875 -37.957031 36.515625 -36.09375 C 39.484375 -34.226562 41.867188 -31.984375 43.671875 -29.359375 C 45.472656 -26.734375 46.375 -23.617188 46.375 -20.015625 C 46.375 -16.285156 45.550781 -12.898438 43.90625 -9.859375 C 42.269531 -6.828125 39.914062 -4.394531 36.84375 -2.5625 C 33.78125 -0.726562 30.128906 0.3125 25.890625 0.5625 C 24.628906 0.625 22.90625 0.578125 20.71875 0.421875 C 18.539062 0.265625 16.0625 -0.171875 13.28125 -0.890625 C 10.5 -1.617188 7.554688 -2.773438 4.453125 -4.359375 Z M 4.453125 -4.359375 "/></g></g></g><g fill="#F5F0E8" fill-opacity="1"><g transform="translate(897.984758, 1039.788346)"><g/></g></g><g fill="#F5F0E8" fill-opacity="1"><g transform="translate(911.567949, 1039.788346)"><g><path d="M 53.484375 -66.765625 C 54.117188 -66.578125 54.3125 -66.101562 54.0625 -65.34375 C 54 -65.09375 53.804688 -64.921875 53.484375 -64.828125 C 53.171875 -64.734375 52.890625 -64.71875 52.640625 -64.78125 C 48.585938 -66.488281 44.285156 -67.34375 39.734375 -67.34375 C 34.421875 -67.34375 29.757812 -66.472656 25.75 -64.734375 C 21.738281 -62.992188 18.351562 -60.648438 15.59375 -57.703125 C 12.84375 -54.765625 10.710938 -51.492188 9.203125 -47.890625 C 7.492188 -43.597656 6.640625 -39.078125 6.640625 -34.328125 C 6.640625 -29.585938 7.492188 -25.066406 9.203125 -20.765625 C 10.710938 -17.097656 12.84375 -13.796875 15.59375 -10.859375 C 18.351562 -7.921875 21.738281 -5.597656 25.75 -3.890625 C 29.757812 -2.179688 34.421875 -1.328125 39.734375 -1.328125 C 41.953125 -1.328125 44.148438 -1.53125 46.328125 -1.9375 C 48.515625 -2.351562 50.617188 -3.003906 52.640625 -3.890625 C 52.890625 -4.015625 53.171875 -4.015625 53.484375 -3.890625 C 53.804688 -3.765625 54 -3.570312 54.0625 -3.3125 C 54.375 -2.625 54.179688 -2.117188 53.484375 -1.796875 C 49.191406 -0.0234375 44.609375 0.859375 39.734375 0.859375 C 34.109375 0.859375 29.160156 -0.0546875 24.890625 -1.890625 C 20.628906 -3.722656 17.023438 -6.21875 14.078125 -9.375 C 11.140625 -12.539062 8.878906 -16.054688 7.296875 -19.921875 C 5.460938 -24.472656 4.546875 -29.273438 4.546875 -34.328125 C 4.546875 -39.390625 5.460938 -44.164062 7.296875 -48.65625 C 8.878906 -52.570312 11.140625 -56.109375 14.078125 -59.265625 C 17.023438 -62.429688 20.628906 -64.929688 24.890625 -66.765625 C 29.160156 -68.597656 34.109375 -69.515625 39.734375 -69.515625 C 44.484375 -69.515625 49.066406 -68.597656 53.484375 -66.765625 Z M 50.84375 -17.734375 C 51.46875 -18.046875 51.941406 -17.890625 52.265625 -17.265625 C 52.640625 -16.691406 52.507812 -16.21875 51.875 -15.84375 C 49.851562 -14.695312 47.910156 -13.898438 46.046875 -13.453125 C 44.179688 -13.015625 42.078125 -12.796875 39.734375 -12.796875 C 34.742188 -12.796875 30.617188 -14.015625 27.359375 -16.453125 C 24.109375 -18.890625 21.785156 -21.910156 20.390625 -25.515625 C 19.316406 -28.296875 18.78125 -31.234375 18.78125 -34.328125 C 18.78125 -37.429688 19.316406 -40.34375 20.390625 -43.0625 C 21.785156 -46.664062 24.109375 -49.695312 27.359375 -52.15625 C 30.617188 -54.625 34.742188 -55.859375 39.734375 -55.859375 C 42.078125 -55.859375 44.179688 -55.632812 46.046875 -55.1875 C 47.910156 -54.75 49.851562 -53.960938 51.875 -52.828125 C 52.445312 -52.453125 52.578125 -51.945312 52.265625 -51.3125 C 51.941406 -50.738281 51.46875 -50.613281 50.84375 -50.9375 C 49 -51.945312 47.222656 -52.65625 45.515625 -53.0625 C 43.816406 -53.476562 41.890625 -53.6875 39.734375 -53.6875 C 35.179688 -53.6875 31.46875 -52.578125 28.59375 -50.359375 C 25.71875 -48.148438 23.648438 -45.460938 22.390625 -42.296875 C 21.367188 -39.765625 20.859375 -37.09375 20.859375 -34.28125 C 20.859375 -31.46875 21.367188 -28.796875 22.390625 -26.265625 C 23.648438 -23.046875 25.71875 -20.34375 28.59375 -18.15625 C 31.46875 -15.976562 35.179688 -14.890625 39.734375 -14.890625 C 41.890625 -14.890625 43.816406 -15.109375 45.515625 -15.546875 C 47.222656 -15.992188 49 -16.722656 50.84375 -17.734375 Z M 50.84375 -17.734375 "/></g></g></g><g fill="#F5F0E8" fill-opacity="1"><g transform="translate(969.040905, 1039.788346)"><g><path d="M 76.53125 -44.953125 C 76.664062 -44.703125 76.648438 -44.414062 76.484375 -44.09375 C 76.328125 -43.78125 76.09375 -43.59375 75.78125 -43.53125 C 75.019531 -43.34375 74.546875 -43.597656 74.359375 -44.296875 C 72.835938 -49.035156 70.429688 -53.191406 67.140625 -56.765625 C 63.859375 -60.335938 60.003906 -63.101562 55.578125 -65.0625 C 51.148438 -67.019531 46.441406 -68 41.453125 -68 C 34.742188 -68 28.828125 -66.546875 23.703125 -63.640625 C 18.585938 -60.734375 14.585938 -56.71875 11.703125 -51.59375 C 8.828125 -46.46875 7.390625 -40.617188 7.390625 -34.046875 C 7.390625 -27.472656 8.828125 -21.625 11.703125 -16.5 C 14.585938 -11.382812 18.585938 -7.351562 23.703125 -4.40625 C 28.828125 -1.46875 34.742188 0 41.453125 0 C 46.441406 0 51.148438 -0.992188 55.578125 -2.984375 C 60.003906 -4.972656 63.859375 -7.753906 67.140625 -11.328125 C 70.429688 -14.898438 72.835938 -19.0625 74.359375 -23.8125 C 74.546875 -24.5 75.019531 -24.75 75.78125 -24.5625 C 76.539062 -24.3125 76.789062 -23.835938 76.53125 -23.140625 C 74.957031 -18.078125 72.398438 -13.632812 68.859375 -9.8125 C 65.316406 -5.988281 61.1875 -3.015625 56.46875 -0.890625 C 51.757812 1.222656 46.753906 2.28125 41.453125 2.28125 C 36.078125 2.28125 31.175781 1.378906 26.75 -0.421875 C 22.320312 -2.222656 18.492188 -4.753906 15.265625 -8.015625 C 12.046875 -11.273438 9.566406 -15.113281 7.828125 -19.53125 C 6.085938 -23.957031 5.21875 -28.796875 5.21875 -34.046875 C 5.21875 -39.296875 6.085938 -44.117188 7.828125 -48.515625 C 9.566406 -52.910156 12.046875 -56.734375 15.265625 -59.984375 C 18.492188 -63.242188 22.320312 -65.773438 26.75 -67.578125 C 31.175781 -69.378906 36.078125 -70.28125 41.453125 -70.28125 C 46.753906 -70.28125 51.757812 -69.21875 56.46875 -67.09375 C 61.1875 -64.976562 65.316406 -62.023438 68.859375 -58.234375 C 72.398438 -54.441406 74.957031 -50.015625 76.53125 -44.953125 Z M 22.484375 -22.953125 C 22.347656 -23.203125 22.3125 -23.484375 22.375 -23.796875 C 22.445312 -24.117188 22.609375 -24.34375 22.859375 -24.46875 C 23.554688 -24.84375 24.09375 -24.71875 24.46875 -24.09375 C 26.175781 -20.988281 28.546875 -18.535156 31.578125 -16.734375 C 34.617188 -14.929688 37.910156 -14.03125 41.453125 -14.03125 C 45.117188 -14.03125 48.4375 -14.945312 51.40625 -16.78125 C 54.375 -18.613281 56.726562 -21.046875 58.46875 -24.078125 C 60.207031 -27.117188 61.078125 -30.441406 61.078125 -34.046875 C 61.078125 -37.710938 60.207031 -41.046875 58.46875 -44.046875 C 56.726562 -47.054688 54.375 -49.476562 51.40625 -51.3125 C 48.4375 -53.144531 45.117188 -54.0625 41.453125 -54.0625 C 37.910156 -54.0625 34.617188 -53.160156 31.578125 -51.359375 C 28.546875 -49.554688 26.175781 -47.101562 24.46875 -44 C 24.15625 -43.3125 23.617188 -43.15625 22.859375 -43.53125 C 22.285156 -43.976562 22.160156 -44.515625 22.484375 -45.140625 C 24.441406 -48.554688 27.109375 -51.257812 30.484375 -53.25 C 33.867188 -55.25 37.523438 -56.25 41.453125 -56.25 C 45.554688 -56.25 49.25 -55.234375 52.53125 -53.203125 C 55.820312 -51.179688 58.445312 -48.492188 60.40625 -45.140625 C 62.375 -41.796875 63.359375 -38.097656 63.359375 -34.046875 C 63.359375 -30.003906 62.375 -26.289062 60.40625 -22.90625 C 58.445312 -19.519531 55.820312 -16.816406 52.53125 -14.796875 C 49.25 -12.773438 45.554688 -11.765625 41.453125 -11.765625 C 37.523438 -11.765625 33.867188 -12.773438 30.484375 -14.796875 C 27.109375 -16.816406 24.441406 -19.535156 22.484375 -22.953125 Z M 22.484375 -22.953125 "/></g></g></g><g fill="#F5F0E8" fill-opacity="1"><g transform="translate(1050.792867, 1039.788346)"><g><path d="M 56.8125 -67.71875 C 56.8125 -68.414062 57.191406 -68.765625 57.953125 -68.765625 C 58.648438 -68.765625 59 -68.414062 59 -67.71875 L 59 -24 C 59 -18.875 57.84375 -14.398438 55.53125 -10.578125 C 53.21875 -6.753906 50.117188 -3.78125 46.234375 -1.65625 C 42.347656 0.457031 37.96875 1.515625 33.09375 1.515625 C 28.164062 1.515625 23.738281 0.425781 19.8125 -1.75 C 15.894531 -3.9375 12.8125 -6.941406 10.5625 -10.765625 C 8.320312 -14.585938 7.203125 -19 7.203125 -24 L 7.203125 -67.71875 C 7.203125 -68.414062 7.582031 -68.765625 8.34375 -68.765625 C 9.039062 -68.765625 9.390625 -68.414062 9.390625 -67.71875 L 9.390625 -24 C 9.390625 -19.382812 10.414062 -15.320312 12.46875 -11.8125 C 14.519531 -8.300781 17.332031 -5.5625 20.90625 -3.59375 C 24.476562 -1.632812 28.539062 -0.65625 33.09375 -0.65625 C 37.519531 -0.65625 41.519531 -1.617188 45.09375 -3.546875 C 48.664062 -5.484375 51.507812 -8.1875 53.625 -11.65625 C 55.75 -15.132812 56.8125 -19.25 56.8125 -24 Z M 20.953125 -67.71875 C 20.953125 -68.414062 21.300781 -68.765625 22 -68.765625 C 22.695312 -68.765625 23.046875 -68.414062 23.046875 -67.71875 L 23.046875 -24.75 C 23.046875 -21.78125 23.992188 -19.332031 25.890625 -17.40625 C 27.785156 -15.476562 30.1875 -14.515625 33.09375 -14.515625 C 36.070312 -14.515625 38.492188 -15.476562 40.359375 -17.40625 C 42.222656 -19.332031 43.15625 -21.78125 43.15625 -24.75 L 43.15625 -67.71875 C 43.15625 -68.414062 43.503906 -68.765625 44.203125 -68.765625 C 44.953125 -68.765625 45.328125 -68.414062 45.328125 -67.71875 L 45.328125 -24.75 C 45.328125 -21.144531 44.171875 -18.1875 41.859375 -15.875 C 39.554688 -13.570312 36.632812 -12.421875 33.09375 -12.421875 C 29.5625 -12.421875 26.65625 -13.570312 24.375 -15.875 C 22.09375 -18.1875 20.953125 -21.144531 20.953125 -24.75 Z M 20.953125 -67.71875 "/></g></g></g><g fill="#F5F0E8" fill-opacity="1"><g transform="translate(1117.18077, 1039.788346)"><g><path d="M 9.765625 0 C 9.765625 0.757812 9.382812 1.140625 8.625 1.140625 C 7.9375 1.140625 7.59375 0.757812 7.59375 0 L 7.59375 -67.8125 C 7.59375 -68.570312 7.9375 -68.953125 8.625 -68.953125 L 35.28125 -68.953125 C 39.257812 -68.953125 42.847656 -67.972656 46.046875 -66.015625 C 49.242188 -64.054688 51.789062 -61.445312 53.6875 -58.1875 C 55.582031 -54.925781 56.53125 -51.335938 56.53125 -47.421875 C 56.53125 -43.816406 55.707031 -40.460938 54.0625 -37.359375 C 52.414062 -34.265625 50.15625 -31.707031 47.28125 -29.6875 C 44.40625 -27.664062 41.164062 -26.460938 37.5625 -26.078125 L 57.1875 -0.65625 C 57.632812 -0.09375 57.570312 0.378906 57 0.765625 C 56.5 1.265625 55.960938 1.195312 55.390625 0.5625 L 34.515625 -26.359375 C 34.328125 -26.554688 34.234375 -26.8125 34.234375 -27.125 C 34.234375 -27.882812 34.582031 -28.265625 35.28125 -28.265625 C 38.820312 -28.265625 42.03125 -29.132812 44.90625 -30.875 C 47.78125 -32.613281 50.054688 -34.9375 51.734375 -37.84375 C 53.410156 -40.75 54.25 -43.941406 54.25 -47.421875 C 54.25 -50.960938 53.410156 -54.1875 51.734375 -57.09375 C 50.054688 -60 47.78125 -62.320312 44.90625 -64.0625 C 42.03125 -65.800781 38.820312 -66.671875 35.28125 -66.671875 L 9.765625 -66.671875 Z M 30.34375 -39.640625 C 29.59375 -39.640625 29.21875 -39.988281 29.21875 -40.6875 C 29.21875 -41.382812 29.59375 -41.734375 30.34375 -41.734375 L 34.140625 -41.734375 C 35.785156 -41.734375 37.175781 -42.285156 38.3125 -43.390625 C 39.457031 -44.492188 40.03125 -45.835938 40.03125 -47.421875 C 40.03125 -49.066406 39.457031 -50.425781 38.3125 -51.5 C 37.175781 -52.570312 35.785156 -53.109375 34.140625 -53.109375 L 22.1875 -53.109375 C 21.5 -53.109375 21.15625 -53.472656 21.15625 -54.203125 C 21.15625 -54.929688 21.5 -55.296875 22.1875 -55.296875 L 34.140625 -55.296875 C 36.359375 -55.296875 38.253906 -54.550781 39.828125 -53.0625 C 41.410156 -51.582031 42.203125 -49.703125 42.203125 -47.421875 C 42.203125 -45.210938 41.410156 -43.363281 39.828125 -41.875 C 38.253906 -40.382812 36.359375 -39.640625 34.140625 -39.640625 Z M 40.6875 -0.65625 C 41.132812 -0.09375 41.070312 0.410156 40.5 0.859375 C 39.863281 1.359375 39.328125 1.257812 38.890625 0.5625 L 23.328125 -20.296875 L 23.328125 0 C 23.328125 0.25 23.21875 0.5 23 0.75 C 22.78125 1.007812 22.507812 1.140625 22.1875 1.140625 C 21.5 1.140625 21.15625 0.757812 21.15625 0 L 21.15625 -23.515625 C 21.09375 -23.835938 21.21875 -24.15625 21.53125 -24.46875 C 22.101562 -24.84375 22.609375 -24.75 23.046875 -24.1875 Z M 40.6875 -0.65625 "/></g></g></g><g fill="#F5F0E8" fill-opacity="1"><g transform="translate(1176.076319, 1039.788346)"><g><path d="M 2.9375 -66.671875 C 2.238281 -66.671875 1.890625 -67.019531 1.890625 -67.71875 C 1.890625 -68.414062 2.238281 -68.765625 2.9375 -68.765625 L 50.265625 -68.765625 C 51.023438 -68.765625 51.40625 -68.414062 51.40625 -67.71875 C 51.40625 -67.019531 51.023438 -66.671875 50.265625 -66.671875 Z M 2.9375 -53.015625 C 2.238281 -53.015625 1.890625 -53.425781 1.890625 -54.25 C 1.890625 -54.945312 2.238281 -55.296875 2.9375 -55.296875 L 19.921875 -55.296875 C 20.609375 -55.296875 20.953125 -54.945312 20.953125 -54.25 L 20.953125 0 C 20.953125 0.695312 20.609375 1.046875 19.921875 1.046875 C 19.160156 1.046875 18.78125 0.695312 18.78125 0 L 18.78125 -53.015625 Z M 50.359375 -55.296875 C 51.054688 -55.296875 51.40625 -54.945312 51.40625 -54.25 C 51.40625 -53.425781 51.054688 -53.015625 50.359375 -53.015625 L 34.421875 -53.015625 L 34.421875 0 C 34.421875 0.695312 34.078125 1.046875 33.390625 1.046875 C 32.691406 1.046875 32.34375 0.695312 32.34375 0 L 32.34375 -54.25 C 32.34375 -54.945312 32.691406 -55.296875 33.390625 -55.296875 Z M 50.359375 -55.296875 "/></g></g></g><g fill="#F5F0E8" fill-opacity="1"><g transform="translate(1230.135045, 1039.788346)"><g><path d="M 42.6875 -66.296875 C 43.375 -66.046875 43.59375 -65.585938 43.34375 -64.921875 C 43.09375 -64.253906 42.617188 -64.046875 41.921875 -64.296875 C 38.566406 -65.503906 35.101562 -66.34375 31.53125 -66.8125 C 27.957031 -67.289062 24.539062 -67.132812 21.28125 -66.34375 C 18.03125 -65.550781 15.140625 -63.796875 12.609375 -61.078125 C 10.585938 -58.929688 9.148438 -56.289062 8.296875 -53.15625 C 7.441406 -50.03125 7.363281 -46.867188 8.0625 -43.671875 C 8.757812 -40.484375 10.46875 -37.65625 13.1875 -35.1875 C 15.519531 -33.164062 17.90625 -31.628906 20.34375 -30.578125 C 22.78125 -29.535156 25.054688 -28.617188 27.171875 -27.828125 C 29.285156 -27.046875 31.019531 -26.097656 32.375 -24.984375 C 33.738281 -23.878906 34.488281 -22.222656 34.625 -20.015625 C 34.75 -17.796875 33.972656 -15.957031 32.296875 -14.5 C 30.617188 -13.050781 28.675781 -12.265625 26.46875 -12.140625 C 23.488281 -11.953125 20.210938 -12.285156 16.640625 -13.140625 C 13.066406 -13.992188 9.765625 -15.523438 6.734375 -17.734375 C 6.097656 -18.179688 6 -18.6875 6.4375 -19.25 C 6.882812 -19.820312 7.394531 -19.914062 7.96875 -19.53125 C 9.488281 -18.519531 11.289062 -17.570312 13.375 -16.6875 C 15.457031 -15.800781 17.617188 -15.132812 19.859375 -14.6875 C 22.109375 -14.25 24.210938 -14.125 26.171875 -14.3125 C 28.128906 -14.507812 29.710938 -15.144531 30.921875 -16.21875 C 32.054688 -17.289062 32.5625 -18.550781 32.4375 -20 C 32.3125 -21.457031 31.710938 -22.695312 30.640625 -23.71875 C 29.753906 -24.46875 28.328125 -25.207031 26.359375 -25.9375 C 24.398438 -26.664062 22.234375 -27.550781 19.859375 -28.59375 C 17.492188 -29.632812 15.203125 -30.960938 12.984375 -32.578125 C 10.773438 -34.191406 8.957031 -36.195312 7.53125 -38.59375 C 6.113281 -41 5.40625 -43.972656 5.40625 -47.515625 C 5.40625 -52.453125 6.570312 -56.640625 8.90625 -60.078125 C 11.25 -63.523438 14.441406 -66.039062 18.484375 -67.625 C 22.535156 -69.207031 27.09375 -69.648438 32.15625 -68.953125 C 33.476562 -68.765625 35.007812 -68.460938 36.75 -68.046875 C 38.488281 -67.640625 40.46875 -67.054688 42.6875 -66.296875 Z M 5.03125 -3.515625 C 4.394531 -3.828125 4.265625 -4.296875 4.640625 -4.921875 C 5.023438 -5.554688 5.535156 -5.71875 6.171875 -5.40625 C 8.890625 -4.007812 11.828125 -2.867188 14.984375 -1.984375 C 18.148438 -1.097656 21.3125 -0.625 24.46875 -0.5625 C 27.632812 -0.5 30.640625 -0.925781 33.484375 -1.84375 C 36.328125 -2.757812 38.789062 -4.265625 40.875 -6.359375 C 43.03125 -8.566406 44.566406 -11.203125 45.484375 -14.265625 C 46.398438 -17.335938 46.507812 -20.46875 45.8125 -23.65625 C 45.113281 -26.851562 43.40625 -29.6875 40.6875 -32.15625 C 38.34375 -34.363281 35.9375 -36.019531 33.46875 -37.125 C 31.007812 -38.238281 28.71875 -39.1875 26.59375 -39.96875 C 24.476562 -40.757812 22.722656 -41.707031 21.328125 -42.8125 C 19.941406 -43.925781 19.1875 -45.554688 19.0625 -47.703125 C 19 -49.921875 19.707031 -51.753906 21.1875 -53.203125 C 22.675781 -54.660156 24.5 -55.421875 26.65625 -55.484375 C 30.945312 -55.734375 35.71875 -54.785156 40.96875 -52.640625 C 41.664062 -52.390625 41.867188 -51.929688 41.578125 -51.265625 C 41.296875 -50.597656 40.8125 -50.390625 40.125 -50.640625 C 38.476562 -51.335938 36.359375 -52.019531 33.765625 -52.6875 C 31.171875 -53.351562 28.769531 -53.554688 26.5625 -53.296875 C 25.164062 -53.109375 23.914062 -52.585938 22.8125 -51.734375 C 21.707031 -50.878906 21.1875 -49.628906 21.25 -47.984375 C 21.25 -46.410156 21.941406 -45.082031 23.328125 -44 C 24.210938 -43.375 25.617188 -42.679688 27.546875 -41.921875 C 29.472656 -41.160156 31.625 -40.226562 34 -39.125 C 36.375 -38.019531 38.648438 -36.644531 40.828125 -35 C 43.015625 -33.351562 44.816406 -31.3125 46.234375 -28.875 C 47.660156 -26.445312 48.375 -23.523438 48.375 -20.109375 C 48.375 -15.804688 47.503906 -12.132812 45.765625 -9.09375 C 44.023438 -6.0625 41.632812 -3.660156 38.59375 -1.890625 C 35.5625 -0.117188 32.082031 0.953125 28.15625 1.328125 C 24.238281 1.703125 20.132812 1.382812 15.84375 0.375 C 14.132812 0 12.378906 -0.503906 10.578125 -1.140625 C 8.773438 -1.773438 6.925781 -2.566406 5.03125 -3.515625 Z M 5.03125 -3.515625 "/></g></g></g></svg>